Coordinates
version=1
nRows=26
nColumns=24
inDegrees=yes

Units are S.I. units (second, meters, Newtons, ...)
Angles are in degrees.

endheader
time	pelvis_tilt	pelvis_list	pelvis_rotation	pelvis_tx	pelvis_ty	pelvis_tz	hip_flexion_r	hip_adduction_r	hip_rotation_r	knee_angle_r	ankle_angle_r	subtalar_angle_r	mtp_angle_r	hip_flexion_l	hip_adduction_l	hip_rotation_l	knee_angle_l	ankle_angle_l	subtalar_angle_l	mtp_angle_l	lumbar_extension	lumbar_bending	lumbar_rotation
      4.44000000	      2.27148289	     -6.15853307	     -4.21656559	      0.67940770	      0.91105001	     -0.14225341	    -25.23152658	      7.54058629	      1.77577750	     -8.50098821	     15.22977333	      5.97892249	      0.00000000	     27.06507934	     -5.04648349	     -6.38443603	    -10.15784980	      5.27423542	    -10.32561409	      0.00000000	    -25.63921315	     -0.04286380	      7.04116118
      4.45000000	      2.49405744	     -5.51431286	     -4.16544902	      0.69591279	      0.91054675	     -0.14298785	    -25.58670073	      6.66319007	      1.15456429	     -9.97722423	     14.17960730	      6.74831916	      0.00000000	     27.31628660	     -4.23240045	     -5.84204939	    -12.59189172	      3.71482740	    -12.52161833	      0.00000000	    -25.49369396	     -1.02920604	      6.60644049
      4.46000000	      2.82826376	     -4.75058547	     -3.94648125	      0.71264860	      0.91046327	     -0.14389363	    -25.94473284	      5.72349538	      0.17023550	    -11.60834469	     12.83438532	      7.55771012	      0.00000000	     27.43695777	     -3.22200300	     -5.24121334	    -15.01656289	      2.02952172	    -14.53145676	      0.00000000	    -25.45280545	     -2.12511888	      5.97883377
      4.47000000	      3.15118678	     -3.97475900	     -3.71786318	      0.72945308	      0.91068285	     -0.14476769	    -26.14581744	      4.78407982	     -0.76048096	    -13.45987729	     11.13431997	      8.18340877	      0.00000000	     27.51468859	     -2.19529882	     -4.68234559	    -17.38114963	      0.41304559	    -16.32499854	      0.00000000	    -25.41052084	     -3.24994604	      5.41149030
      4.48000000	      3.52609619	     -3.16129594	     -3.47711386	      0.74641889	      0.91128582	     -0.14563724	    -26.22558026	      3.79619416	     -1.79888048	    -15.57666021	      9.01733793	      8.73963446	      0.00000000	     27.40691333	     -1.12525072	     -4.18938496	    -19.58102830	     -0.82333628	    -17.69849217	      0.00000000	    -25.42305196	     -4.42365118	      4.82188493
      4.49000000	      3.92383545	     -2.35539299	     -3.25112451	      0.76343945	      0.91220421	     -0.14649742	    -26.13116570	      2.78865635	     -2.82557961	    -17.97014983	      6.44453767	      9.17780964	      0.00000000	     27.12486809	     -0.06942006	     -3.81690486	    -21.58391591	     -1.52936913	    -18.68412097	      0.00000000	    -25.47166564	     -5.59330733	      4.29576355
      4.50000000	      4.20205633	     -1.61050009	     -3.09678900	      0.78036942	      0.91327121	     -0.14715961	    -25.66702736	      1.82146173	     -3.61954730	    -20.67048970	      3.37322927	      9.30705386	      0.00000000	     26.81315732	      0.86935038	     -3.60916080	    -23.38282531	     -1.59294351	    -19.20235822	      0.00000000	    -25.40532532	     -6.72584536	      3.87977247
      4.51000000	      4.54739698	     -0.88951686	     -2.95669022	      0.79704671	      0.91461276	     -0.14812343	    -24.98812828	      0.79240229	     -4.52350023	    -23.71441258	      0.00649047	      9.41840570	      0.00000000	     26.24488768	      1.83313991	     -3.38893332	    -24.87096976	     -1.24979038	    -19.83490491	      0.00000000	    -25.48341030	     -7.75678944	      3.47746557
      4.52000000	      4.71666809	     -0.23304859	     -2.92735093	      0.81329446	      0.91598538	     -0.14888038	    -23.81884586	     -0.20399921	     -5.08697749	    -27.06652792	     -3.63691162	      9.13691354	      0.00000000	     25.72352598	      2.66663585	     -3.31000099	    -26.13026076	     -0.46529726	    -20.19812166	      0.00000000	    -25.42112042	     -8.74382436	      3.23058665
      4.53000000	      4.82076840	      0.44779551	     -2.91549069	      0.82917970	      0.91743384	     -0.14969431	    -22.33362955	     -1.22993482	     -5.45479761	    -30.61890291	     -7.36345455	      8.55963840	      0.00000000	     25.13042781	      3.53009802	     -3.27548640	    -27.12030063	      0.55146606	    -20.51975474	      0.00000000	    -25.34021220	     -9.71333251	      2.91484383
      4.54000000	      4.64138306	      0.95685043	     -3.04828343	      0.84435208	      0.91868580	     -0.15021235	    -20.23475722	     -2.06083800	     -5.32812824	    -34.40535391	    -11.03612483	      7.50865516	      0.00000000	     24.77447155	      4.11502594	     -3.43625235	    -27.96548285	      1.86521162	    -20.55575996	      0.00000000	    -25.00941999	    -10.50921894	      2.79649928
      4.55000000	      4.24372947	      1.53668191	     -3.16457316	      0.85904920	      0.91964026	     -0.15082371	    -17.67532329	     -2.91554894	     -5.11205634	    -38.35987352	    -14.21144601	      6.18997608	      0.00000000	     24.57049192	      4.77854847	     -3.56468634	    -28.59741529	      3.14345846	    -20.54081739	      0.00000000	    -24.47974936	    -11.32334353	      2.59938885
      4.56000000	      3.84179792	      2.13156733	     -3.36934153	      0.87320622	      0.92063488	     -0.15134191	    -14.92803709	     -3.75160871	     -4.67896412	    -42.34052947	    -16.87371515	      4.54831912	      0.00000000	     24.28419632	      5.41233639	     -3.86120084	    -28.99284213	      4.36440508	    -20.50654232	      0.00000000	    -24.00261849	    -12.13189434	      2.44750639
      4.57000000	      3.38501344	      2.74736573	     -3.61285442	      0.88694051	      0.92156576	     -0.15180996	    -12.00242260	     -4.53876562	     -4.08266763	    -46.25849113	    -18.80471616	      2.67320570	      0.00000000	     23.97599511	      6.04806082	     -4.19289490	    -29.17291396	      5.51601034	    -20.40799968	      0.00000000	    -23.49309193	    -12.93564352	      2.30080360
      4.58000000	      3.11243221	      3.37976958	     -3.90706786	      0.90031854	      0.92285962	     -0.15226527	     -9.21998730	     -5.29872754	     -3.38769802	    -49.95589653	    -20.05520789	      0.63516704	      0.00000000	     23.37356130	      6.70338141	     -4.59051185	    -29.10035934	      6.46578028	    -20.35963737	      0.00000000	    -23.24566858	    -13.73017814	      2.15451569
      4.59000000	      2.53983129	      3.95729346	     -4.10850885	      0.91345061	      0.92375126	     -0.15285269	     -6.09175662	     -5.89957421	     -2.65639023	    -53.47185890	    -20.26977556	     -1.18242814	      0.00000000	     23.06401820	      7.30251793	     -4.91448088	    -28.94942486	      7.45935022	    -20.06890222	      0.00000000	    -22.64854433	    -14.38170618	      1.89967192
      4.60000000	      2.39117753	      4.48797428	     -4.38742862	      0.92640698	      0.92544827	     -0.15343247	     -3.46928320	     -6.45220879	     -1.90789623	    -56.55282418	    -19.79383922	     -3.01793297	      0.00000000	     22.17901882	      7.89492876	     -5.24552232	    -28.53245698	      8.23296576	    -19.96212642	      0.00000000	    -22.58316849	    -14.97362888	      1.69989478
      4.61000000	      2.14778279	      4.89242348	     -4.59098422	      0.93915436	      0.92718457	     -0.15415027	     -0.78930180	     -6.80813792	     -1.16645209	    -59.28573642	    -18.51168023	     -4.44475546	      0.00000000	     21.35440126	      8.38675040	     -5.45412871	    -28.03614128	      8.93326995	    -19.76510129	      0.00000000	    -22.44171122	    -15.35562659	      1.37841055
      4.62000000	      2.06814168	      5.15902214	     -4.72670821	      0.95182147	      0.92935081	     -0.15504501	      1.60773476	     -7.01600206	     -0.55718043	    -61.55412400	    -16.66659184	     -5.61905199	      0.00000000	     20.27421875	      8.81235679	     -5.45645027	    -27.41112834	      9.53580632	    -19.62903139	      0.00000000	    -22.51999976	    -15.53250554	      1.07391182
      4.63000000	      2.10076763	      5.28505702	     -4.75885440	      0.96439807	      0.93188887	     -0.15604075	      3.76817509	     -7.06393463	     -0.11610739	    -63.34730381	    -14.58195685	     -6.65714896	      0.00000000	     19.00688342	      9.15065799	     -5.25731051	    -26.69347076	     10.05368939	    -19.47093839	      0.00000000	    -22.78750431	    -15.51041944	      0.60190163
      4.64000000	      2.08800632	      5.25361577	     -4.81458047	      0.97684229	      0.93447305	     -0.15706864	      5.91072127	     -6.92070996	      0.34169691	    -64.75746891	    -12.10148916	     -7.21783100	      0.00000000	     17.75170221	      9.32337095	     -5.03509007	    -25.91633563	     10.48153204	    -19.41342382	      0.00000000	    -22.98973968	    -15.28744606	      0.30153232
      4.65000000	      2.06664005	      5.09344999	     -4.80519323	      0.98921036	      0.93713687	     -0.15817435	      7.96091208	     -6.62980536	      0.66599974	    -65.74331329	     -9.67166792	     -7.64553533	      0.00000000	     16.46313647	      9.38255808	     -4.69743525	    -25.08183390	     10.84383047	    -19.39957894	      0.00000000	    -23.20031777	    -14.88621251	      0.00885950
      4.66000000	      2.03108046	      4.87054332	     -4.73449621	      1.00152616	      0.93977300	     -0.15932339	      9.93264623	     -6.26781780	      0.86976891	    -66.34827263	     -7.34319980	     -7.93392634	      0.00000000	     15.16012812	      9.37915500	     -4.30181188	    -24.19821558	     11.16334013	    -19.37983380	      0.00000000	    -23.40709670	    -14.39088555	     -0.30948734
      4.67000000	      1.96790744	      4.63473726	     -4.59933607	      1.01381935	      0.94228216	     -0.16055623	     11.84407766	     -5.90212482	      0.95439716	    -66.60150471	     -5.16172454	     -8.10248578	      0.00000000	     13.86563625	      9.35825686	     -3.90688256	    -23.26568855	     11.43854591	    -19.36467246	      0.00000000	    -23.58378676	    -13.84851807	     -0.68685444
      4.68000000	      1.88829022	      4.38317116	     -4.39973047	      1.02608640	      0.94466117	     -0.16180566	     13.67093347	     -5.52742659	      0.92207084	    -66.49731158	     -3.18653110	     -8.22597575	      0.00000000	     12.56950391	      9.30970110	     -3.46967478	    -22.29698702	     11.68531696	    -19.28844971	      0.00000000	    -23.73881131	    -13.27827773	     -1.03873045
      4.69000000	      1.78682687	      4.14161380	     -4.15075700	      1.03833631	      0.94682933	     -0.16309000	     15.42468147	     -5.17782643	      0.79940163	    -66.05986696	     -1.41582673	     -8.31741489	      0.00000000	     11.28544529	      9.25646181	     -3.03138339	    -21.29639222	     11.92073023	    -19.17544879	      0.00000000	    -23.86003785	    -12.70384649	     -1.39738956
